ffmpeg started on 2025-06-05 at 20:55:01
Report written to "D:\Convert\FFMetrics\reports\ssim_report-6.txt"
Log level: 32
Command line:
ffmpeg -hide_banner -nostdin -i "G:\\\xc0\xed\xe8\xec\xe5\\\xce\xed\xe3\xee\xe8\xed\xe3\xe8\\!_36_\xce\xf1\xe5\xed\xfc_2024\\DreamCast\\\xcd\xe5\xe7\xed\xe0\xea\xee\xec\xf6\xfb \xe2 \xe4\xf0\xf3\xe3\xee\xe9 \xe6\xe8\xe7\xed\xe8\\[DC] Raise wa Tanin ga Ii - 08_Telegram_HEVC.mkv" -i "G:\\\xc0\xed\xe8\xec\xe5\\\xce\xed\xe3\xee\xe8\xed\xe3\xe8\\!_36_\xce\xf1\xe5\xed\xfc_2024\\DreamCast\\\xcd\xe5\xe7\xed\xe0\xea\xee\xec\xf6\xfb \xe2 \xe4\xf0\xf3\xe3\xee\xe9 \xe6\xe8\xe7\xed\xe8\\[DC] Raise wa Tanin ga Ii - 08_Telegram.mp4" -lavfi "[0:v]settb=AVTB,setpts=PTS-STARTPTS,format=pix_fmts=yuv420p10,fps=24000/1001,scale=1920:1080:flags=bicubic[main];[1:v]settb=AVTB,setpts=PTS-STARTPTS,format=pix_fmts=yuv420p,fps=24000/1001,scale=1920:1080:flags=bicubic[ref];[main][ref]ssim=eof_action=endall:stats_file='D\\:/Convert/FFMetrics/logs/ssim_logfile-6.txt'" -f null -
Input #0, matroska,webm, from 'G:\Аниме\Онгоинги\!_36_Осень_2024\DreamCast\Незнакомцы в другой жизни\[DC] Raise wa Tanin ga Ii - 08_Telegram_HEVC.mkv':
  Metadata:
    COMPATIBLE_BRANDS: isomiso2avc1mp41
    MAJOR_BRAND     : isom
    MINOR_VERSION   : 512
    ENCODER         : Lavf61.7.100
  Duration: 00:23:46.73, start: -0.021000, bitrate: 899 kb/s
  Stream #0:0: Video: hevc (Main 10), yuv420p10le(tv, bt709, progressive), 1920x1080 [SAR 1:1 DAR 16:9], 23.98 fps, 23.98 tbr, 1k tbn (default)
      Metadata:
        HANDLER_NAME    : VideoHandler
        VENDOR_ID       : [0][0][0][0]
        ENCODER         : Lavc61.19.100 libx265
        BPS             : 701539
        DURATION        : 00:23:46.508708333
        NUMBER_OF_FRAMES: 34202
        NUMBER_OF_BYTES : 125093973
        _STATISTICS_WRITING_APP: mkvpropedit v66.0.0 ('Josie') 64-bit
        _STATISTICS_WRITING_DATE_UTC: 2025-05-31 16:00:11
        _STATISTICS_TAGS: BPS DURATION NUMBER_OF_FRAMES NUMBER_OF_BYTES
  Stream #0:1: Audio: aac (LC), 48000 Hz, stereo, fltp (default)
      Metadata:
        HANDLER_NAME    : SoundHandler
        VENDOR_ID       : [0][0][0][0]
        ENCODER         : Lavc61.19.100 aac
        BPS             : 193713
        DURATION        : 00:23:46.730000000
        NUMBER_OF_FRAMES: 66879
        NUMBER_OF_BYTES : 34547092
        _STATISTICS_WRITING_APP: mkvpropedit v66.0.0 ('Josie') 64-bit
        _STATISTICS_WRITING_DATE_UTC: 2025-05-31 16:00:11
        _STATISTICS_TAGS: BPS DURATION NUMBER_OF_FRAMES NUMBER_OF_BYTES
Input #1, mov,mp4,m4a,3gp,3g2,mj2, from 'G:\Аниме\Онгоинги\!_36_Осень_2024\DreamCast\Незнакомцы в другой жизни\[DC] Raise wa Tanin ga Ii - 08_Telegram.mp4':
  Metadata:
    major_brand     : isom
    minor_version   : 512
    compatible_brands: isomiso2avc1mp41
    encoder         : Lavf61.1.100
  Duration: 00:23:46.68, start: 0.000000, bitrate: 3752 kb/s
  Stream #1:0[0x1](und): Video: h264 (High) (avc1 / 0x31637661), yuv420p(tv, bt709, progressive), 1920x1080 [SAR 1:1 DAR 16:9], 3605 kb/s, 23.98 fps, 23.98 tbr, 24k tbn (default)
      Metadata:
        handler_name    : VideoHandler
        vendor_id       : [0][0][0][0]
        encoder         : Lavc61.3.100 h264_qsv
  Stream #1:1[0x2](und): Audio: aac (HE-AACv2) (mp4a / 0x6134706D), 48000 Hz, stereo, fltp, 144 kb/s (default)
      Metadata:
        handler_name    : SoundHandler
        vendor_id       : [0][0][0][0]
Stream mapping:
  Stream #0:0 (hevc) -> settb:default
  Stream #1:0 (h264) -> settb:default
  ssim:default -> Stream #0:0 (wrapped_avframe)
  Stream #0:1 -> #0:1 (aac (native) -> pcm_s16le (native))
Output #0, null, to 'pipe:':
  Metadata:
    COMPATIBLE_BRANDS: isomiso2avc1mp41
    MAJOR_BRAND     : isom
    MINOR_VERSION   : 512
    encoder         : Lavf61.7.100
  Stream #0:0: Video: wrapped_avframe, yuv420p10le(tv, bt709, progressive), 1920x1080 [SAR 1:1 DAR 16:9], q=2-31, 200 kb/s, 23.98 fps, 23.98 tbn
      Metadata:
        encoder         : Lavc61.19.100 wrapped_avframe
  Stream #0:1: Audio: pcm_s16le, 48000 Hz, stereo, s16, 1536 kb/s (default)
      Metadata:
        HANDLER_NAME    : SoundHandler
        VENDOR_ID       : [0][0][0][0]
        _STATISTICS_TAGS: BPS DURATION NUMBER_OF_FRAMES NUMBER_OF_BYTES
        BPS             : 193713
        DURATION        : 00:23:46.730000000
        NUMBER_OF_FRAMES: 66879
        NUMBER_OF_BYTES : 34547092
        _STATISTICS_WRITING_APP: mkvpropedit v66.0.0 ('Josie') 64-bit
        _STATISTICS_WRITING_DATE_UTC: 2025-05-31 16:00:11
        encoder         : Lavc61.19.100 pcm_s16le
frame=  152 fps=0.0 q=-0.0 size=N/A time=00:00:06.33 bitrate=N/A speed=12.3x    frame=  370 fps=362 q=-0.0 size=N/A time=00:00:15.43 bitrate=N/A speed=15.1x    frame=  645 fps=417 q=-0.0 size=N/A time=00:00:26.90 bitrate=N/A speed=17.4x    frame=  906 fps=442 q=-0.0 size=N/A time=00:00:37.78 bitrate=N/A speed=18.4x    frame= 1169 fps=454 q=-0.0 size=N/A time=00:00:48.75 bitrate=N/A speed=18.9x    frame= 1400 fps=455 q=-0.0 size=N/A time=00:00:58.39 bitrate=N/A speed=  19x    frame= 1662 fps=462 q=-0.0 size=N/A time=00:01:09.31 bitrate=N/A speed=19.3x    frame= 1930 fps=468 q=-0.0 size=N/A time=00:01:20.49 bitrate=N/A speed=19.5x    frame= 2171 fps=469 q=-0.0 size=N/A time=00:01:30.54 bitrate=N/A speed=19.5x    frame= 2417 fps=469 q=-0.0 size=N/A time=00:01:40.80 bitrate=N/A speed=19.5x    frame= 2652 fps=466 q=-0.0 size=N/A time=00:01:50.61 bitrate=N/A speed=19.5x    frame= 2872 fps=463 q=-0.0 size=N/A time=00:01:59.78 bitrate=N/A speed=19.3x    frame= 3076 fps=457 q=-0.0 size=N/A time=00:02:08.29 bitrate=N/A speed=19.1x    frame= 3299 fps=455 q=-0.0 size=N/A time=00:02:17.59 bitrate=N/A speed=  19x    frame= 3513 fps=452 q=-0.0 size=N/A time=00:02:26.52 bitrate=N/A speed=18.9x    frame= 3749 fps=452 q=-0.0 size=N/A time=00:02:36.36 bitrate=N/A speed=18.8x    frame= 3981 fps=452 q=-0.0 size=N/A time=00:02:46.04 bitrate=N/A speed=18.9x    frame= 4182 fps=449 q=-0.0 size=N/A time=00:02:54.42 bitrate=N/A speed=18.7x    frame= 4383 fps=445 q=-0.0 size=N/A time=00:03:02.80 bitrate=N/A speed=18.6x    frame= 4607 fps=445 q=-0.0 size=N/A time=00:03:12.15 bitrate=N/A speed=18.5x    frame= 4826 fps=444 q=-0.0 size=N/A time=00:03:21.28 bitrate=N/A speed=18.5x    frame= 5054 fps=444 q=-0.0 size=N/A time=00:03:30.79 bitrate=N/A speed=18.5x    frame= 5287 fps=444 q=-0.0 size=N/A time=00:03:40.51 bitrate=N/A speed=18.5x    frame= 5516 fps=444 q=-0.0 size=N/A time=00:03:50.06 bitrate=N/A speed=18.5x    frame= 5754 fps=445 q=-0.0 size=N/A time=00:03:59.98 bitrate=N/A speed=18.6x    frame= 6014 fps=447 q=-0.0 size=N/A time=00:04:10.83 bitrate=N/A speed=18.6x    frame= 6265 fps=449 q=-0.0 size=N/A time=00:04:21.30 bitrate=N/A speed=18.7x    frame= 6514 fps=450 q=-0.0 size=N/A time=00:04:31.68 bitrate=N/A speed=18.8x    frame= 6772 fps=452 q=-0.0 size=N/A time=00:04:42.44 bitrate=N/A speed=18.8x    frame= 7029 fps=453 q=-0.0 size=N/A time=00:04:53.16 bitrate=N/A speed=18.9x    frame= 7293 fps=455 q=-0.0 size=N/A time=00:05:04.22 bitrate=N/A speed=  19x    frame= 7552 fps=457 q=-0.0 size=N/A time=00:05:14.98 bitrate=N/A speed=  19x    frame= 7810 fps=458 q=-0.0 size=N/A time=00:05:25.74 bitrate=N/A speed=19.1x    frame= 8078 fps=460 q=-0.0 size=N/A time=00:05:36.91 bitrate=N/A speed=19.2x    frame= 8327 fps=460 q=-0.0 size=N/A time=00:05:47.30 bitrate=N/A speed=19.2x    frame= 8544 fps=459 q=-0.0 size=N/A time=00:05:56.35 bitrate=N/A speed=19.2x    frame= 8780 fps=459 q=-0.0 size=N/A time=00:06:06.19 bitrate=N/A speed=19.2x    frame= 9044 fps=461 q=-0.0 size=N/A time=00:06:17.21 bitrate=N/A speed=19.2x    frame= 9297 fps=461 q=-0.0 size=N/A time=00:06:27.76 bitrate=N/A speed=19.2x    frame= 9515 fps=461 q=-0.0 size=N/A time=00:06:36.85 bitrate=N/A speed=19.2x    frame= 9776 fps=461 q=-0.0 size=N/A time=00:06:47.74 bitrate=N/A speed=19.2x    frame=10014 fps=462 q=-0.0 size=N/A time=00:06:57.66 bitrate=N/A speed=19.3x    frame=10267 fps=462 q=-0.0 size=N/A time=00:07:08.21 bitrate=N/A speed=19.3x    frame=10475 fps=461 q=-0.0 size=N/A time=00:07:16.89 bitrate=N/A speed=19.2x    frame=10746 fps=462 q=-0.0 size=N/A time=00:07:28.19 bitrate=N/A speed=19.3x    frame=10986 fps=462 q=-0.0 size=N/A time=00:07:38.20 bitrate=N/A speed=19.3x    frame=11234 fps=463 q=-0.0 size=N/A time=00:07:48.55 bitrate=N/A speed=19.3x    frame=11495 fps=464 q=-0.0 size=N/A time=00:07:59.43 bitrate=N/A speed=19.3x    frame=11748 fps=464 q=-0.0 size=N/A time=00:08:09.98 bitrate=N/A speed=19.4x    frame=12018 fps=466 q=-0.0 size=N/A time=00:08:21.25 bitrate=N/A speed=19.4x    frame=12295 fps=467 q=-0.0 size=N/A time=00:08:32.80 bitrate=N/A speed=19.5x    frame=12549 fps=467 q=-0.0 size=N/A time=00:08:43.39 bitrate=N/A speed=19.5x    frame=12775 fps=467 q=-0.0 size=N/A time=00:08:52.82 bitrate=N/A speed=19.5x    frame=13025 fps=467 q=-0.0 size=N/A time=00:09:03.25 bitrate=N/A speed=19.5x    frame=13259 fps=467 q=-0.0 size=N/A time=00:09:13.01 bitrate=N/A speed=19.5x    frame=13526 fps=468 q=-0.0 size=N/A time=00:09:24.14 bitrate=N/A speed=19.5x    frame=13794 fps=469 q=-0.0 size=N/A time=00:09:35.32 bitrate=N/A speed=19.5x    frame=14020 fps=468 q=-0.0 size=N/A time=00:09:44.75 bitrate=N/A speed=19.5x    frame=14272 fps=469 q=-0.0 size=N/A time=00:09:55.26 bitrate=N/A speed=19.5x    frame=14519 fps=469 q=-0.0 size=N/A time=00:10:05.56 bitrate=N/A speed=19.5x    frame=14780 fps=469 q=-0.0 size=N/A time=00:10:16.44 bitrate=N/A speed=19.6x    frame=15021 fps=469 q=-0.0 size=N/A time=00:10:26.50 bitrate=N/A speed=19.6x    frame=15265 fps=469 q=-0.0 size=N/A time=00:10:36.67 bitrate=N/A speed=19.6x    frame=15479 fps=468 q=-0.0 size=N/A time=00:10:45.60 bitrate=N/A speed=19.5x    frame=15679 fps=467 q=-0.0 size=N/A time=00:10:53.94 bitrate=N/A speed=19.5x    frame=15906 fps=467 q=-0.0 size=N/A time=00:11:03.41 bitrate=N/A speed=19.5x    frame=16130 fps=466 q=-0.0 size=N/A time=00:11:12.75 bitrate=N/A speed=19.5x    frame=16377 fps=466 q=-0.0 size=N/A time=00:11:23.05 bitrate=N/A speed=19.5x    frame=16642 fps=467 q=-0.0 size=N/A time=00:11:34.11 bitrate=N/A speed=19.5x    frame=16890 fps=468 q=-0.0 size=N/A time=00:11:44.45 bitrate=N/A speed=19.5x    frame=17154 fps=468 q=-0.0 size=N/A time=00:11:55.46 bitrate=N/A speed=19.5x    frame=17407 fps=468 q=-0.0 size=N/A time=00:12:06.01 bitrate=N/A speed=19.5x    frame=17651 fps=469 q=-0.0 size=N/A time=00:12:16.19 bitrate=N/A speed=19.5x    frame=17898 fps=469 q=-0.0 size=N/A time=00:12:26.49 bitrate=N/A speed=19.5x    frame=18181 fps=470 q=-0.0 size=N/A time=00:12:38.29 bitrate=N/A speed=19.6x    frame=18393 fps=469 q=-0.0 size=N/A time=00:12:47.14 bitrate=N/A speed=19.6x    frame=18584 fps=468 q=-0.0 size=N/A time=00:12:55.10 bitrate=N/A speed=19.5x    frame=18737 fps=465 q=-0.0 size=N/A time=00:13:01.48 bitrate=N/A speed=19.4x    frame=18971 fps=465 q=-0.0 size=N/A time=00:13:11.24 bitrate=N/A speed=19.4x    frame=19193 fps=465 q=-0.0 size=N/A time=00:13:20.50 bitrate=N/A speed=19.4x    frame=19429 fps=465 q=-0.0 size=N/A time=00:13:30.35 bitrate=N/A speed=19.4x    frame=19662 fps=465 q=-0.0 size=N/A time=00:13:40.06 bitrate=N/A speed=19.4x    frame=19924 fps=465 q=-0.0 size=N/A time=00:13:50.99 bitrate=N/A speed=19.4x    frame=20159 fps=465 q=-0.0 size=N/A time=00:14:00.79 bitrate=N/A speed=19.4x    frame=20415 fps=465 q=-0.0 size=N/A time=00:14:11.47 bitrate=N/A speed=19.4x    frame=20635 fps=465 q=-0.0 size=N/A time=00:14:20.65 bitrate=N/A speed=19.4x    frame=20820 fps=464 q=-0.0 size=N/A time=00:14:28.36 bitrate=N/A speed=19.3x    frame=20987 fps=462 q=-0.0 size=N/A time=00:14:35.33 bitrate=N/A speed=19.3x    frame=21225 fps=462 q=-0.0 size=N/A time=00:14:45.25 bitrate=N/A speed=19.3x    frame=21478 fps=462 q=-0.0 size=N/A time=00:14:55.81 bitrate=N/A speed=19.3x    frame=21739 fps=463 q=-0.0 size=N/A time=00:15:06.69 bitrate=N/A speed=19.3x    frame=21988 fps=463 q=-0.0 size=N/A time=00:15:17.08 bitrate=N/A speed=19.3x    frame=22236 fps=463 q=-0.0 size=N/A time=00:15:27.42 bitrate=N/A speed=19.3x    frame=22490 fps=464 q=-0.0 size=N/A time=00:15:38.02 bitrate=N/A speed=19.3x    frame=22745 fps=464 q=-0.0 size=N/A time=00:15:48.65 bitrate=N/A speed=19.3x    frame=23003 fps=464 q=-0.0 size=N/A time=00:15:59.41 bitrate=N/A speed=19.4x    frame=23244 fps=464 q=-0.0 size=N/A time=00:16:09.46 bitrate=N/A speed=19.4x    frame=23497 fps=465 q=-0.0 size=N/A time=00:16:20.02 bitrate=N/A speed=19.4x    frame=23739 fps=465 q=-0.0 size=N/A time=00:16:30.11 bitrate=N/A speed=19.4x    frame=23976 fps=465 q=-0.0 size=N/A time=00:16:39.99 bitrate=N/A speed=19.4x    frame=24216 fps=465 q=-0.0 size=N/A time=00:16:50.00 bitrate=N/A speed=19.4x    frame=24464 fps=465 q=-0.0 size=N/A time=00:17:00.35 bitrate=N/A speed=19.4x    frame=24671 fps=464 q=-0.0 size=N/A time=00:17:08.98 bitrate=N/A speed=19.4x    frame=24906 fps=464 q=-0.0 size=N/A time=00:17:18.78 bitrate=N/A speed=19.4x    frame=25146 fps=464 q=-0.0 size=N/A time=00:17:28.79 bitrate=N/A speed=19.4x    frame=25388 fps=464 q=-0.0 size=N/A time=00:17:38.89 bitrate=N/A speed=19.4x    frame=25644 fps=464 q=-0.0 size=N/A time=00:17:49.56 bitrate=N/A speed=19.4x    frame=25889 fps=465 q=-0.0 size=N/A time=00:17:59.78 bitrate=N/A speed=19.4x    frame=26130 fps=465 q=-0.0 size=N/A time=00:18:09.83 bitrate=N/A speed=19.4x    frame=26381 fps=465 q=-0.0 size=N/A time=00:18:20.30 bitrate=N/A speed=19.4x    frame=26633 fps=465 q=-0.0 size=N/A time=00:18:30.81 bitrate=N/A speed=19.4x    frame=26904 fps=466 q=-0.0 size=N/A time=00:18:42.12 bitrate=N/A speed=19.4x    frame=27164 fps=466 q=-0.0 size=N/A time=00:18:52.96 bitrate=N/A speed=19.4x    frame=27423 fps=466 q=-0.0 size=N/A time=00:19:03.76 bitrate=N/A speed=19.4x    frame=27656 fps=466 q=-0.0 size=N/A time=00:19:13.48 bitrate=N/A speed=19.4x    frame=27910 fps=466 q=-0.0 size=N/A time=00:19:24.07 bitrate=N/A speed=19.4x    frame=28162 fps=466 q=-0.0 size=N/A time=00:19:34.59 bitrate=N/A speed=19.5x    frame=28421 fps=467 q=-0.0 size=N/A time=00:19:45.39 bitrate=N/A speed=19.5x    frame=28658 fps=467 q=-0.0 size=N/A time=00:19:55.27 bitrate=N/A speed=19.5x    frame=28903 fps=467 q=-0.0 size=N/A time=00:20:05.49 bitrate=N/A speed=19.5x    frame=29113 fps=466 q=-0.0 size=N/A time=00:20:14.25 bitrate=N/A speed=19.4x    frame=29340 fps=466 q=-0.0 size=N/A time=00:20:23.72 bitrate=N/A speed=19.4x    frame=29607 fps=466 q=-0.0 size=N/A time=00:20:34.85 bitrate=N/A speed=19.5x    frame=29884 fps=467 q=-0.0 size=N/A time=00:20:46.41 bitrate=N/A speed=19.5x    frame=30165 fps=468 q=-0.0 size=N/A time=00:20:58.13 bitrate=N/A speed=19.5x    frame=30396 fps=467 q=-0.0 size=N/A time=00:21:07.76 bitrate=N/A speed=19.5x    frame=30624 fps=467 q=-0.0 size=N/A time=00:21:17.27 bitrate=N/A speed=19.5x    frame=30840 fps=467 q=-0.0 size=N/A time=00:21:26.28 bitrate=N/A speed=19.5x    frame=31070 fps=467 q=-0.0 size=N/A time=00:21:35.87 bitrate=N/A speed=19.5x    frame=31302 fps=467 q=-0.0 size=N/A time=00:21:45.55 bitrate=N/A speed=19.5x    frame=31543 fps=467 q=-0.0 size=N/A time=00:21:55.60 bitrate=N/A speed=19.5x    frame=31802 fps=467 q=-0.0 size=N/A time=00:22:06.40 bitrate=N/A speed=19.5x    frame=32052 fps=467 q=-0.0 size=N/A time=00:22:16.83 bitrate=N/A speed=19.5x    frame=32287 fps=467 q=-0.0 size=N/A time=00:22:26.63 bitrate=N/A speed=19.5x    frame=32510 fps=467 q=-0.0 size=N/A time=00:22:35.93 bitrate=N/A speed=19.5x    frame=32706 fps=466 q=-0.0 size=N/A time=00:22:44.11 bitrate=N/A speed=19.4x    frame=32911 fps=465 q=-0.0 size=N/A time=00:22:52.66 bitrate=N/A speed=19.4x    frame=33100 fps=465 q=-0.0 size=N/A time=00:23:00.54 bitrate=N/A speed=19.4x    frame=33274 fps=464 q=-0.0 size=N/A time=00:23:07.80 bitrate=N/A speed=19.3x    frame=33441 fps=463 q=-0.0 size=N/A time=00:23:14.76 bitrate=N/A speed=19.3x    frame=33642 fps=462 q=-0.0 size=N/A time=00:23:23.15 bitrate=N/A speed=19.3x    frame=33785 fps=461 q=-0.0 size=N/A time=00:23:29.11 bitrate=N/A speed=19.2x    frame=33986 fps=461 q=-0.0 size=N/A time=00:23:37.49 bitrate=N/A speed=19.2x    [Parsed_ssim_10 @ 0000020ec04aa180] SSIM Y:0.995524 (23.491459) U:0.994348 (22.478288) V:0.994044 (22.250430) All:0.995082 (23.081799)
[out#0/null @ 0000020eb343f080] video:14696KiB audio:267516KiB subtitle:0KiB other streams:0KiB global headers:0KiB muxing overhead: unknown
frame=34202 fps=461 q=-0.0 Lsize=N/A time=00:23:46.50 bitrate=N/A speed=19.2x    
